<svg version="1.1" viewBox="0.0 0.0 384.0 540.0" fill="none" stroke="none" stroke-linecap="square" stroke-miterlimit="10" xmlns:xlink="http://www.w3.org/1999/xlink" xmlns="http://www.w3.org/2000/svg"><clipPath id="g13eb87b4174_0_45.0"><path d="m0 0l384.0 0l0 540.0l-384.0 0l0 -540.0z" clip-rule="nonzero"/></clipPath><g clip-path="url(#g13eb87b4174_0_45.0)"><path fill="#ffffff" d="m0 0l384.0 0l0 540.0l-384.0 0z" fill-rule="evenodd"/><path fill="#434343" d="m0.0020997375 0l0 3.9188697E-19c0 -0.0017673112 0.0014326889 -0.0032 0.0032000002 -0.0032l383.9968 0.0032c8.544922E-4 0 0.0016479492 3.371419E-4 0.0022583008 9.372583E-4c6.1035156E-4 6.001164E-4 9.460449E-4 0.001414049 9.460449E-4 0.0022627416l-0.0032043457 539.9968c0 0.0017700195 -0.0014343262 0.0031738281 -0.0032043457 0.0031738281l-383.9968 -0.0031738281l0 0c-0.0017673112 0 -0.0032000002 -0.0014038086 -0.0032000002 -0.0031738281z" fill-rule="evenodd"/><path stroke="#595959" stroke-width="1.0" stroke-linejoin="round" stroke-linecap="butt" d="m0.0020997375 0l0 3.9188697E-19c0 -0.0017673112 0.0014326889 -0.0032 0.0032000002 -0.0032l383.9968 0.0032c8.544922E-4 0 0.0016479492 3.371419E-4 0.0022583008 9.372583E-4c6.1035156E-4 6.001164E-4 9.460449E-4 0.001414049 9.460449E-4 0.0022627416l-0.0032043457 539.9968c0 0.0017700195 -0.0014343262 0.0031738281 -0.0032043457 0.0031738281l-383.9968 -0.0031738281l0 0c-0.0017673112 0 -0.0032000002 -0.0014038086 -0.0032000002 -0.0031738281z" fill-rule="evenodd"/><path fill="#f9cb9c" d="m22.553806 270.0l0 0c0 -131.72209 75.86482 -238.50394 169.44882 -238.50394l0 0c44.940628 0 88.04059 25.128021 119.81842 69.856186c31.777802 44.728165 49.6304 105.39258 49.6304 168.64775l0 0c0 131.72208 -75.86484 238.50394 -169.44882 238.50394l0 0c-93.584 0 -169.44882 -106.78186 -169.44882 -238.50394z" fill-rule="evenodd"/><path stroke="#595959" stroke-width="1.0" stroke-linejoin="round" stroke-linecap="butt" d="m22.553806 270.0l0 0c0 -131.72209 75.86482 -238.50394 169.44882 -238.50394l0 0c44.940628 0 88.04059 25.128021 119.81842 69.856186c31.777802 44.728165 49.6304 105.39258 49.6304 168.64775l0 0c0 131.72208 -75.86484 238.50394 -169.44882 238.50394l0 0c-93.584 0 -169.44882 -106.78186 -169.44882 -238.50394z" fill-rule="evenodd"/><path fill="#000000" d="m143.80261 230.40625q0 -13.40625 11.59375 -22.0q11.609375 -8.609375 34.796875 -8.609375q23.203125 0 35.703125 8.609375q12.5 8.59375 12.5 25.796875q0 5.59375 -1.0 10.09375q-1.0 4.5 -4.5 9.40625q-3.5 4.890625 -6.796875 8.703125q-3.296875 3.796875 -11.296875 10.0q-12.0 9.59375 -25.203125 19.09375q-13.203125 9.5 -15.390625 11.09375l-12.203125 8.8125l48.0 0q13.796875 0 19.59375 -6.0q5.796875 -6.0 8.203125 -18.8125l3.40625 0l-2.0 55.40625l-94.0 0l0 -23.203125l20.1875 -18.59375q20.609375 -18.796875 29.203125 -33.5q8.609375 -14.703125 8.609375 -32.40625q0 -17.703125 -3.8125 -24.203125q-3.796875 -6.5 -12.796875 -6.5q-9.0 0 -12.609375 4.609375q-3.59375 4.59375 -3.59375 8.796875q0 4.203125 1.203125 7.40625l6.0 0q1.609375 4.1875 1.609375 10.09375q0 5.90625 -5.0 10.203125q-5.0 4.296875 -13.203125 4.296875q-8.203125 0 -12.703125 -5.296875q-4.5 -5.296875 -4.5 -13.296875z" fill-rule="nonzero"/></g></svg>