<svg version="1.1" viewBox="0.0 0.0 384.0 540.0" fill="none" stroke="none" stroke-linecap="square" stroke-miterlimit="10" xmlns:xlink="http://www.w3.org/1999/xlink" xmlns="http://www.w3.org/2000/svg"><clipPath id="g13eb87b4174_0_50.0"><path d="m0 0l384.0 0l0 540.0l-384.0 0l0 -540.0z" clip-rule="nonzero"/></clipPath><g clip-path="url(#g13eb87b4174_0_50.0)"><path fill="#ffffff" d="m0 0l384.0 0l0 540.0l-384.0 0z" fill-rule="evenodd"/><path fill="#434343" d="m0.0020997375 0l0 3.9188697E-19c0 -0.0017673112 0.0014326889 -0.0032 0.0032000002 -0.0032l383.9968 0.0032c8.544922E-4 0 0.0016479492 3.371419E-4 0.0022583008 9.372583E-4c6.1035156E-4 6.001164E-4 9.460449E-4 0.001414049 9.460449E-4 0.0022627416l-0.0032043457 539.9968c0 0.0017700195 -0.0014343262 0.0031738281 -0.0032043457 0.0031738281l-383.9968 -0.0031738281l0 0c-0.0017673112 0 -0.0032000002 -0.0014038086 -0.0032000002 -0.0031738281z" fill-rule="evenodd"/><path stroke="#595959" stroke-width="1.0" stroke-linejoin="round" stroke-linecap="butt" d="m0.0020997375 0l0 3.9188697E-19c0 -0.0017673112 0.0014326889 -0.0032 0.0032000002 -0.0032l383.9968 0.0032c8.544922E-4 0 0.0016479492 3.371419E-4 0.0022583008 9.372583E-4c6.1035156E-4 6.001164E-4 9.460449E-4 0.001414049 9.460449E-4 0.0022627416l-0.0032043457 539.9968c0 0.0017700195 -0.0014343262 0.0031738281 -0.0032043457 0.0031738281l-383.9968 -0.0031738281l0 0c-0.0017673112 0 -0.0032000002 -0.0014038086 -0.0032000002 -0.0031738281z" fill-rule="evenodd"/><path fill="#a2c4c9" d="m22.553806 270.0l0 0c0 -131.72209 75.86482 -238.50394 169.44882 -238.50394l0 0c44.940628 0 88.04059 25.128021 119.81842 69.856186c31.777802 44.728165 49.6304 105.39258 49.6304 168.64775l0 0c0 131.72208 -75.86484 238.50394 -169.44882 238.50394l0 0c-93.584 0 -169.44882 -106.78186 -169.44882 -238.50394z" fill-rule="evenodd"/><path stroke="#595959" stroke-width="1.0" stroke-linejoin="round" stroke-linecap="butt" d="m22.553806 270.0l0 0c0 -131.72209 75.86482 -238.50394 169.44882 -238.50394l0 0c44.940628 0 88.04059 25.128021 119.81842 69.856186c31.777802 44.728165 49.6304 105.39258 49.6304 168.64775l0 0c0 131.72208 -75.86484 238.50394 -169.44882 238.50394l0 0c-93.584 0 -169.44882 -106.78186 -169.44882 -238.50394z" fill-rule="evenodd"/><path fill="#000000" d="m143.10886 230.40625q0 -13.203125 12.0 -21.90625q12.0 -8.703125 35.59375 -8.703125q45.593765 0 45.593765 31.796875q0 13.0 -10.703125 21.5q-10.6875 8.5 -30.687515 11.90625l0 0.40625q24.79689 1.796875 36.593765 11.59375q11.796875 9.796875 11.796875 25.40625q0 19.1875 -15.5 30.390625q-15.5 11.203125 -43.093765 11.203125q-10.796875 0 -20.109375 -2.390625q-9.296875 -2.40625 -16.59375 -9.5q-7.296875 -7.109375 -7.296875 -16.90625q0 -9.796875 4.703125 -15.203125q4.703125 -5.40625 12.890625 -5.40625q8.203125 0 13.0 4.3125q4.8125 4.296875 4.8125 10.203125q0 5.890625 -1.609375 10.09375l-6.203125 0q-1.1875 3.203125 -1.1875 6.59375q0 14.203125 16.796875 14.203125q11.796875 0 16.09375 -9.0q4.2968903 -9.0 4.2968903 -26.0q0 -17.0 -4.09375 -24.703125q-4.0937653 -7.703125 -12.093765 -11.703125q-7.203125 1.609375 -17.40625 2.609375l-0.59375 -4.40625q17.59375 -1.796875 23.09375 -8.390625q5.5 -6.609375 5.5 -23.5q0 -16.90625 -3.296875 -24.203125q-3.296875 -7.296875 -11.109375 -7.296875q-7.796875 0 -11.09375 4.703125q-3.296875 4.6875 -3.296875 8.890625q0 4.203125 1.203125 7.40625l5.796875 0q1.59375 4.1875 1.59375 10.09375q0 5.90625 -5.0 10.203125q-5.0 4.296875 -13.203125 4.296875q-8.1875 0 -12.6875 -5.296875q-4.5 -5.296875 -4.5 -13.296875z" fill-rule="nonzero"/></g></svg>