<svg version="1.1" viewBox="0.0 0.0 384.0 540.0" fill="none" stroke="none" stroke-linecap="square" stroke-miterlimit="10" xmlns:xlink="http://www.w3.org/1999/xlink" xmlns="http://www.w3.org/2000/svg"><clipPath id="g13eb87b4174_4_5.0"><path d="m0 0l384.0 0l0 540.0l-384.0 0l0 -540.0z" clip-rule="nonzero"/></clipPath><g clip-path="url(#g13eb87b4174_4_5.0)"><path fill="#ffffff" d="m0 0l384.0 0l0 540.0l-384.0 0z" fill-rule="evenodd"/><path fill="#434343" d="m0.0020997375 0l0 3.9188697E-19c0 -0.0017673112 0.0014326889 -0.0032 0.0032000002 -0.0032l383.9968 0.0032c8.544922E-4 0 0.0016479492 3.371419E-4 0.0022583008 9.372583E-4c6.1035156E-4 6.001164E-4 9.460449E-4 0.001414049 9.460449E-4 0.0022627416l-0.0032043457 539.9968c0 0.0017700195 -0.0014343262 0.0031738281 -0.0032043457 0.0031738281l-383.9968 -0.0031738281l0 0c-0.0017673112 0 -0.0032000002 -0.0014038086 -0.0032000002 -0.0031738281z" fill-rule="evenodd"/><path stroke="#595959" stroke-width="1.0" stroke-linejoin="round" stroke-linecap="butt" d="m0.0020997375 0l0 3.9188697E-19c0 -0.0017673112 0.0014326889 -0.0032 0.0032000002 -0.0032l383.9968 0.0032c8.544922E-4 0 0.0016479492 3.371419E-4 0.0022583008 9.372583E-4c6.1035156E-4 6.001164E-4 9.460449E-4 0.001414049 9.460449E-4 0.0022627416l-0.0032043457 539.9968c0 0.0017700195 -0.0014343262 0.0031738281 -0.0032043457 0.0031738281l-383.9968 -0.0031738281l0 0c-0.0017673112 0 -0.0032000002 -0.0014038086 -0.0032000002 -0.0031738281z" fill-rule="evenodd"/><g filter="url(#shadowFilter-g13eb87b4174_4_5.1)"><use xlink:href="#g13eb87b4174_4_5.1" transform="matrix(1.0 0.0 0.0 1.0 0.0 2.0)"/></g><defs><filter id="shadowFilter-g13eb87b4174_4_5.1" filterUnits="userSpaceOnUse"><feGaussianBlur in="SourceAlpha" stdDeviation="2.0" result="blur"/><feComponentTransfer in="blur" color-interpolation-filters="sRGB"><feFuncR type="linear" slope="0" intercept="0.0"/><feFuncG type="linear" slope="0" intercept="0.0"/><feFuncB type="linear" slope="0" intercept="0.0"/><feFuncA type="linear" slope="0.5" intercept="0"/></feComponentTransfer></filter></defs><g id="g13eb87b4174_4_5.1"><path fill="#582626" d="m22.553806 270.0l0 0c0 -131.72209 75.86482 -238.50394 169.44882 -238.50394l0 0c44.940628 0 88.04059 25.128021 119.81842 69.856186c31.777802 44.728165 49.6304 105.39258 49.6304 168.64775l0 0c0 131.72208 -75.86484 238.50394 -169.44882 238.50394l0 0c-93.584 0 -169.44882 -106.78186 -169.44882 -238.50394z" fill-rule="evenodd"/><path fill="#434343" d="m209.00887 218.20312l-14.60939 -43.203125l-39.59375 0l-15.40625 43.203125l15.0 0l0 3.796875l-30.593742 0l0 -3.796875l9.390617 0l51.0 -137.40625l16.406265 0l50.40625 137.40625l9.187485 0l0 3.796875l-65.390625 0l0 -3.796875l14.20314 0zm-33.60939 -100.0l-18.796875 52.390625l36.203125 0l-17.40625 -52.390625z" fill-rule="nonzero"/><path fill="#434343" d="m133.80573 322.0l104.000015 0l2.0 39.59375l-3.609375 0q-8.390625 -20.1875 -17.59375 -27.6875q-9.203125 -7.5 -27.000015 -7.5l-7.0 0l0 61.796875l6.796875 0q9.406265 0 15.79689 -7.09375q6.40625 -7.109375 9.0 -19.109375l3.0 0l0 59.203125l-3.390625 0q-3.609375 -15.0 -9.703125 -21.390625q-6.0937653 -6.40625 -16.70314 -6.40625l-4.796875 0l0 64.1875l7.59375 0q18.406265 0 31.29689 -11.0q12.90625 -11.0 17.703125 -28.1875l4.0 0l-1.59375 43.59375l-109.79689 0l0 -4.40625l11.796875 0l0 -131.1875l-11.796875 0l0 -4.40625z" fill-rule="nonzero"/></g></g></svg>