<svg version="1.1" viewBox="0.0 0.0 384.0 540.0" fill="none" stroke="none" stroke-linecap="square" stroke-miterlimit="10" xmlns:xlink="http://www.w3.org/1999/xlink" xmlns="http://www.w3.org/2000/svg"><clipPath id="g13eb87b4174_0_65.0"><path d="m0 0l384.0 0l0 540.0l-384.0 0l0 -540.0z" clip-rule="nonzero"/></clipPath><g clip-path="url(#g13eb87b4174_0_65.0)"><path fill="#ffffff" d="m0 0l384.0 0l0 540.0l-384.0 0z" fill-rule="evenodd"/><path fill="#434343" d="m0.0020997375 0l0 3.9188697E-19c0 -0.0017673112 0.0014326889 -0.0032 0.0032000002 -0.0032l383.9968 0.0032c8.544922E-4 0 0.0016479492 3.371419E-4 0.0022583008 9.372583E-4c6.1035156E-4 6.001164E-4 9.460449E-4 0.001414049 9.460449E-4 0.0022627416l-0.0032043457 539.9968c0 0.0017700195 -0.0014343262 0.0031738281 -0.0032043457 0.0031738281l-383.9968 -0.0031738281l0 0c-0.0017673112 0 -0.0032000002 -0.0014038086 -0.0032000002 -0.0031738281z" fill-rule="evenodd"/><path stroke="#595959" stroke-width="1.0" stroke-linejoin="round" stroke-linecap="butt" d="m0.0020997375 0l0 3.9188697E-19c0 -0.0017673112 0.0014326889 -0.0032 0.0032000002 -0.0032l383.9968 0.0032c8.544922E-4 0 0.0016479492 3.371419E-4 0.0022583008 9.372583E-4c6.1035156E-4 6.001164E-4 9.460449E-4 0.001414049 9.460449E-4 0.0022627416l-0.0032043457 539.9968c0 0.0017700195 -0.0014343262 0.0031738281 -0.0032043457 0.0031738281l-383.9968 -0.0031738281l0 0c-0.0017673112 0 -0.0032000002 -0.0014038086 -0.0032000002 -0.0031738281z" fill-rule="evenodd"/><g filter="url(#shadowFilter-g13eb87b4174_0_65.1)"><use xlink:href="#g13eb87b4174_0_65.1" transform="matrix(1.0 0.0 0.0 1.0 0.0 2.0)"/></g><defs><filter id="shadowFilter-g13eb87b4174_0_65.1" filterUnits="userSpaceOnUse"><feGaussianBlur in="SourceAlpha" stdDeviation="2.0" result="blur"/><feComponentTransfer in="blur" color-interpolation-filters="sRGB"><feFuncR type="linear" slope="0" intercept="0.0"/><feFuncG type="linear" slope="0" intercept="0.0"/><feFuncB type="linear" slope="0" intercept="0.0"/><feFuncA type="linear" slope="0.5" intercept="0"/></feComponentTransfer></filter></defs><g id="g13eb87b4174_0_65.1"><path fill="#980000" d="m22.553806 270.0l0 0c0 -131.72209 75.86482 -238.50394 169.44882 -238.50394l0 0c44.940628 0 88.04059 25.128021 119.81842 69.856186c31.777802 44.728165 49.6304 105.39258 49.6304 168.64775l0 0c0 131.72208 -75.86484 238.50394 -169.44882 238.50394l0 0c-93.584 0 -169.44882 -106.78186 -169.44882 -238.50394z" fill-rule="evenodd"/><path stroke="#980000" stroke-width="1.0" stroke-linejoin="round" stroke-linecap="butt" d="m22.553806 270.0l0 0c0 -131.72209 75.86482 -238.50394 169.44882 -238.50394l0 0c44.940628 0 88.04059 25.128021 119.81842 69.856186c31.777802 44.728165 49.6304 105.39258 49.6304 168.64775l0 0c0 131.72208 -75.86484 238.50394 -169.44882 238.50394l0 0c-93.584 0 -169.44882 -106.78186 -169.44882 -238.50394z" fill-rule="evenodd"/><path fill="#000000" d="m243.00261 205.79688l0 136.20312l-28.0 0l-68.59375 -129.40625l0 125.609375l11.0 0l0 3.796875l-27.40625 0l0 -3.796875l11.0 0l0 -132.40625l-11.0 0l0 -3.796875l55.203125 0l52.390625 100.40625l0 -96.609375l-11.0 0l0 -3.796875l27.40625 0l0 3.796875l-11.0 0z" fill-rule="nonzero"/></g></g></svg>