<svg version="1.1" viewBox="0.0 0.0 384.0 540.0" fill="none" stroke="none" stroke-linecap="square" stroke-miterlimit="10" xmlns:xlink="http://www.w3.org/1999/xlink" xmlns="http://www.w3.org/2000/svg"><clipPath id="g13eb87b4174_0_60.0"><path d="m0 0l384.0 0l0 540.0l-384.0 0l0 -540.0z" clip-rule="nonzero"/></clipPath><g clip-path="url(#g13eb87b4174_0_60.0)"><path fill="#ffffff" d="m0 0l384.0 0l0 540.0l-384.0 0z" fill-rule="evenodd"/><path fill="#434343" d="m0.0020997375 0l0 3.9188697E-19c0 -0.0017673112 0.0014326889 -0.0032 0.0032000002 -0.0032l383.9968 0.0032c8.544922E-4 0 0.0016479492 3.371419E-4 0.0022583008 9.372583E-4c6.1035156E-4 6.001164E-4 9.460449E-4 0.001414049 9.460449E-4 0.0022627416l-0.0032043457 539.9968c0 0.0017700195 -0.0014343262 0.0031738281 -0.0032043457 0.0031738281l-383.9968 -0.0031738281l0 0c-0.0017673112 0 -0.0032000002 -0.0014038086 -0.0032000002 -0.0031738281z" fill-rule="evenodd"/><path stroke="#595959" stroke-width="1.0" stroke-linejoin="round" stroke-linecap="butt" d="m0.0020997375 0l0 3.9188697E-19c0 -0.0017673112 0.0014326889 -0.0032 0.0032000002 -0.0032l383.9968 0.0032c8.544922E-4 0 0.0016479492 3.371419E-4 0.0022583008 9.372583E-4c6.1035156E-4 6.001164E-4 9.460449E-4 0.001414049 9.460449E-4 0.0022627416l-0.0032043457 539.9968c0 0.0017700195 -0.0014343262 0.0031738281 -0.0032043457 0.0031738281l-383.9968 -0.0031738281l0 0c-0.0017673112 0 -0.0032000002 -0.0014038086 -0.0032000002 -0.0031738281z" fill-rule="evenodd"/><path fill="#efefef" d="m22.553806 270.0l0 0c0 -131.72209 75.86482 -238.50394 169.44882 -238.50394l0 0c44.940628 0 88.04059 25.128021 119.81842 69.856186c31.777802 44.728165 49.6304 105.39258 49.6304 168.64775l0 0c0 131.72208 -75.86484 238.50394 -169.44882 238.50394l0 0c-93.584 0 -169.44882 -106.78186 -169.44882 -238.50394z" fill-rule="evenodd"/><path stroke="#595959" stroke-width="1.0" stroke-linejoin="round" stroke-linecap="butt" d="m22.553806 270.0l0 0c0 -131.72209 75.86482 -238.50394 169.44882 -238.50394l0 0c44.940628 0 88.04059 25.128021 119.81842 69.856186c31.777802 44.728165 49.6304 105.39258 49.6304 168.64775l0 0c0 131.72208 -75.86484 238.50394 -169.44882 238.50394l0 0c-93.584 0 -169.44882 -106.78186 -169.44882 -238.50394z" fill-rule="evenodd"/><path fill="#000000" d="m175.29947 301.59375l16.609375 -57.59375l-12.0 -38.203125l-11.40625 0l0 -3.796875l62.000015 0l0 3.796875l-11.796875 0l29.796875 94.609375l23.999985 -94.609375l-20.20311 0l0 -3.796875l39.999985 0l0 3.796875l-13.203125 0l-36.79686 138.20312l-17.796875 0l-29.593765 -90.40625l-26.0 90.40625l-17.40625 0l-50.406242 -138.20312l-9.390625 0l0 -3.796875l64.99999 0l0 3.796875l-14.0 0l32.59375 95.796875z" fill-rule="nonzero"/></g></svg>